<svg class="decor hidden-xs hidden-sm" height="100%" preserveaspectratio="none" version="1.1" viewbox="0 0 100 100" width="100%" xmlns="http://www.w3.org/2000/svg">
  <path d="M0 100 L0 50 L2 50 L2 100 L4 100 L4 50 L6 50 L6 100 L8 100 L8 50 L10 50 L10 100 L12 100 L12 50 L14 50 L14 100 L16 100 L16 50 L18 50 L18 100 L20 100 L20 50 L22 50 L22 100 L24 100 L24 50 L26 50 L26 100 L28 100 L28 50 L30 50 L30 100 L32 100 L32 50 L34 50 L34 100 L36 100 L36 50 L38 50 L38 100 L40 100 L40 50 L42 50 L42 100 L44 100 L44 50 L46 50 L46 100 L48 100 L48 50 L50 50 L50 100 L52 100 L52 50 L54 50 L54 100 L56 100 L56 50 L58 50 L58 100 L60 100 L60 50 L62 50 L62 100 L64 100 L64 50 L66 50 L66 100 L68 100 L68 50 L70 50 L70 100 L72 100 L72 50 L74 50 L74 100 L76 100 L76 50 L78 50 L78 100 L80 100 L80 50 L82 50 L82 100 L84 100 L84 50 L86 50 L86 100 L88 100 L88 50 L90 50 L90 100 L92 100 L92 50 L94 50 L94 100 L96 100 L96 50 L98 50 L98 100 L100 100 " stroke-width="0"></path>
</svg>
<svg class="decor visible-xs visible-sm" height="100%" preserveaspectratio="none" version="1.1" viewbox="0 0 100 100" width="100%" xmlns="http://www.w3.org/2000/svg">
  <path d="M0 100 L0 50 L5 50 L5 100 L10 100 L10 50 L15 50 L15 100 L20 100 L20 50 L25 50 L25 100 L30 100 L30 50 L35 50 L35 100 L40 100 L40 50 L45 50 L45 100 L50 100 L50 50 L55 50 L55 100 L60 100 L60 50 L65 50 L65 100 L70 100 L70 50 L75 50 L75 100 L80 100 L80 50 L85 50 L85 100 L90 100 L90 50 L95 50 L95 100 L100 100 " stroke-width="0" stroke-width="0"></path>
</svg>
